<svg width="1024" height="1024" viewBox="0 0 1024 1024" fill="none" xmlns="http://www.w3.org/2000/svg">
  <defs>
    <linearGradient id="bg" x1="144" y1="112" x2="900" y2="920" gradientUnits="userSpaceOnUse">
      <stop offset="0" stop-color="#1F657B"/>
      <stop offset="0.56" stop-color="#18485D"/>
      <stop offset="1" stop-color="#102D3C"/>
    </linearGradient>
    <radialGradient id="glow" cx="0" cy="0" r="1" gradientUnits="userSpaceOnUse" gradientTransform="translate(742 222) rotate(136.347) scale(416.701)">
      <stop stop-color="#FFD4A0" stop-opacity="0.34"/>
      <stop offset="1" stop-color="#FFD4A0" stop-opacity="0"/>
    </radialGradient>
    <linearGradient id="paper" x1="304" y1="176" x2="734" y2="824" gradientUnits="userSpaceOnUse">
      <stop offset="0" stop-color="#FFF9F0"/>
      <stop offset="1" stop-color="#F0E2CB"/>
    </linearGradient>
    <linearGradient id="fold" x1="612" y1="176" x2="746" y2="316" gradientUnits="userSpaceOnUse">
      <stop offset="0" stop-color="#FFD8A7"/>
      <stop offset="1" stop-color="#E7A05A"/>
    </linearGradient>
    <filter id="shadow" x="174" y="126" width="702" height="810" filterUnits="userSpaceOnUse" color-interpolation-filters="sRGB">
      <feFlood flood-opacity="0" result="BackgroundImageFix"/>
      <feColorMatrix in="SourceAlpha" type="matrix" values="0 0 0 0 0 0 0 0 0 0 0 0 0 0 0 0 0 0 127 0" result="hardAlpha"/>
      <feOffset dy="28"/>
      <feGaussianBlur stdDeviation="38"/>
      <feColorMatrix type="matrix" values="0 0 0 0 0.0313725 0 0 0 0 0.0901961 0 0 0 0 0.145098 0 0 0 0.24 0"/>
      <feBlend mode="normal" in2="BackgroundImageFix" result="effect1_dropShadow_1_1"/>
      <feBlend mode="normal" in="SourceGraphic" in2="effect1_dropShadow_1_1" result="shape"/>
    </filter>
  </defs>

  <rect x="88" y="88" width="848" height="848" rx="232" fill="url(#bg)"/>
  <rect x="88" y="88" width="848" height="848" rx="232" fill="url(#glow)"/>
  <circle cx="228" cy="782" r="104" fill="#EAB56B" fill-opacity="0.10"/>
  <circle cx="786" cy="222" r="116" fill="#FFD69C" fill-opacity="0.10"/>

  <g filter="url(#shadow)">
    <path d="M292 220C292 195.699 311.699 176 336 176H608L740 308V756C740 780.301 720.301 800 696 800H336C311.699 800 292 780.301 292 756V220Z" fill="url(#paper)"/>
    <path d="M608 176L740 308H644C624.118 308 608 291.882 608 272V176Z" fill="url(#fold)"/>
  </g>

  <g stroke-linecap="round">
    <path d="M512 352V618" stroke="#1A5567" stroke-width="52"/>
    <path d="M378 486H646" stroke="#1A5567" stroke-width="52"/>
    <path d="M414 388L610 584" stroke="#E48C47" stroke-width="42"/>
    <path d="M610 388L414 584" stroke="#E48C47" stroke-width="42"/>
  </g>

  <path d="M374 692H652" stroke="#225E72" stroke-width="26" stroke-linecap="round" opacity="0.22"/>
  <path d="M374 742H604" stroke="#225E72" stroke-width="26" stroke-linecap="round" opacity="0.16"/>

  <path d="M792 176L809 219L852 236L809 253L792 296L775 253L732 236L775 219L792 176Z" fill="#FFD39A"/>
</svg>
